<svg width="11" height="7" viewBox="0 0 11 7" fill="none" xmlns="http://www.w3.org/2000/svg">
<path fill-rule="evenodd" clip-rule="evenodd" d="M10.2443 1.14604C10.1978 1.09948 10.1427 1.06253 10.0819 1.03733C10.0212 1.01212 9.95605 0.999146 9.89028 0.999146C9.82451 0.999146 9.75939 1.01212 9.69865 1.03733C9.6379 1.06253 9.58273 1.09948 9.53628 1.14604L5.89028 4.79304L2.24428 1.14604C2.15039 1.05215 2.02306 0.999408 1.89028 0.999408C1.7575 0.999408 1.63017 1.05215 1.53628 1.14604C1.44239 1.23993 1.38965 1.36726 1.38965 1.50004C1.38965 1.63282 1.44239 1.76015 1.53628 1.85404L5.53628 5.85404C5.58273 5.9006 5.6379 5.93755 5.69865 5.96275C5.75939 5.98796 5.82451 6.00093 5.89028 6.00093C5.95605 6.00093 6.02117 5.98796 6.08191 5.96275C6.14266 5.93755 6.19783 5.9006 6.24428 5.85404L10.2443 1.85404C10.2908 1.80759 10.3278 1.75242 10.353 1.69167C10.3782 1.63093 10.3912 1.56581 10.3912 1.50004C10.3912 1.43427 10.3782 1.36915 10.353 1.30841C10.3278 1.24766 10.2908 1.19248 10.2443 1.14604Z" fill="#121212" fill-opacity="0.75"/>
</svg>
