<svg width="30" height="34" viewBox="0 0 30 34" fill="none" xmlns="http://www.w3.org/2000/svg">
<path d="M28.125 8.5H22.5V6.8C22.5 4.99653 21.7098 3.26692 20.3033 1.99167C18.8968 0.716427 16.9891 0 15 0C13.0109 0 11.1032 0.716427 9.6967 1.99167C8.29018 3.26692 7.5 4.99653 7.5 6.8V8.5H1.875C1.37772 8.5 0.900806 8.67911 0.549175 8.99792C0.197544 9.31673 0 9.74913 0 10.2V28.9C0 30.2526 0.592632 31.5498 1.64752 32.5062C2.70242 33.4627 4.13316 34 5.625 34H24.375C25.8668 34 27.2976 33.4627 28.3525 32.5062C29.4074 31.5498 30 30.2526 30 28.9V10.2C30 9.74913 29.8025 9.31673 29.4508 8.99792C29.0992 8.67911 28.6223 8.5 28.125 8.5ZM11.25 6.8C11.25 5.89826 11.6451 5.03346 12.3484 4.39584C13.0516 3.75821 14.0054 3.4 15 3.4C15.9946 3.4 16.9484 3.75821 17.6516 4.39584C18.3549 5.03346 18.75 5.89826 18.75 6.8V8.5H11.25V6.8ZM26.25 28.9C26.25 29.3509 26.0525 29.7833 25.7008 30.1021C25.3492 30.4209 24.8723 30.6 24.375 30.6H5.625C5.12772 30.6 4.65081 30.4209 4.29918 30.1021C3.94754 29.7833 3.75 29.3509 3.75 28.9V11.9H7.5V13.6C7.5 14.0509 7.69754 14.4833 8.04918 14.8021C8.40081 15.1209 8.87772 15.3 9.375 15.3C9.87228 15.3 10.3492 15.1209 10.7008 14.8021C11.0525 14.4833 11.25 14.0509 11.25 13.6V11.9H18.75V13.6C18.75 14.0509 18.9475 14.4833 19.2992 14.8021C19.6508 15.1209 20.1277 15.3 20.625 15.3C21.1223 15.3 21.5992 15.1209 21.9508 14.8021C22.3025 14.4833 22.5 14.0509 22.5 13.6V11.9H26.25V28.9Z" fill="#F9F9EF"/>
</svg>
