<svg width="30" height="30" viewBox="0 0 30 30" fill="none" xmlns="http://www.w3.org/2000/svg">
<path d="M22.1422 7.80824C22.0001 7.80824 21.8638 7.7518 21.7634 7.65134C21.6629 7.55087 21.6064 7.41461 21.6064 7.27253C21.6064 7.13045 21.6629 6.99419 21.7634 6.89372C21.8638 6.79326 22.0001 6.73682 22.1422 6.73682M22.1422 7.80824C22.2842 7.80824 22.4205 7.7518 22.521 7.65134C22.6214 7.55087 22.6779 7.41461 22.6779 7.27253C22.6779 7.13045 22.6214 6.99419 22.521 6.89372C22.4205 6.79326 22.2842 6.73682 22.1422 6.73682" stroke="#F4F2E9" stroke-linecap="round" stroke-linejoin="round"/>
<path d="M1.83857 7.35195C1.83857 5.88966 2.41946 4.48726 3.45346 3.45327C4.48745 2.41927 5.88985 1.83838 7.35214 1.83838H22.0564C22.7805 1.83838 23.4974 1.98099 24.1664 2.25807C24.8353 2.53516 25.4431 2.94128 25.9551 3.45327C26.4671 3.96525 26.8732 4.57306 27.1503 5.242C27.4274 5.91094 27.57 6.6279 27.57 7.35195V22.0562C27.57 23.5185 26.9891 24.9209 25.9551 25.9549C24.9211 26.9889 23.5187 27.5698 22.0564 27.5698H7.35C5.88771 27.5698 4.48531 26.9889 3.45131 25.9549C2.41732 24.9209 1.83643 23.5185 1.83643 22.0562L1.83857 7.35195Z" stroke="#F4F2E9" stroke-linecap="round" stroke-linejoin="round"/>
<path d="M9.24023 14.704C9.24023 15.4216 9.38157 16.1322 9.65618 16.7951C9.93079 17.4581 10.3333 18.0605 10.8407 18.5679C11.3481 19.0753 11.9505 19.4778 12.6134 19.7524C13.2764 20.027 13.9869 20.1683 14.7045 20.1683C15.4221 20.1683 16.1327 20.027 16.7956 19.7524C17.4586 19.4778 18.0609 19.0753 18.5684 18.5679C19.0758 18.0605 19.4783 17.4581 19.7529 16.7951C20.0275 16.1322 20.1688 15.4216 20.1688 14.704C20.1688 13.2548 19.5931 11.865 18.5684 10.8402C17.5436 9.81545 16.1537 9.23975 14.7045 9.23975C13.2553 9.23975 11.8654 9.81545 10.8407 10.8402C9.81594 11.865 9.24023 13.2548 9.24023 14.704Z" stroke="#F4F2E9" stroke-linecap="round" stroke-linejoin="round"/>
</svg>
