<svg width="32" height="32" viewBox="0 0 32 32" fill="none" xmlns="http://www.w3.org/2000/svg">
<path d="M19.5122 21.389L21.4217 19.48L22.8707 20.93L20.9617 22.8385L19.5122 21.389Z" fill="#B0BDC6"/>
<path d="M19.9727 20.9299L20.9627 19.9399L22.4127 21.3884L21.4227 22.3784L19.9727 20.9299Z" fill="#DFE9EF"/>
<path d="M19.4775 21.3866L21.3865 19.4771L21.9875 20.0781L20.0785 21.9881L19.4775 21.3866Z" fill="#B0BDC6"/>
<path d="M20.7498 4.3999C16.2498 -0.100098 8.89983 -0.100098 4.34983 4.3999C-0.20017 8.8999 -0.150169 16.2499 4.34983 20.7999C8.84983 25.2999 16.1998 25.2999 20.7498 20.7999C25.2998 16.2499 25.2998 8.8999 20.7498 4.3999ZM19.6998 19.6999C15.7498 23.6499 9.39983 23.6499 5.49983 19.6999C1.54983 15.7499 1.54983 9.3999 5.49983 5.4999C9.44983 1.5499 15.7998 1.5499 19.6998 5.4999C23.5998 9.3999 23.5998 15.7499 19.6998 19.6999Z" fill="#DFE9EF"/>
<path d="M19.9501 5.2001C15.9001 1.1501 9.3001 1.1501 5.2001 5.2001C1.1501 9.2501 1.1501 15.8501 5.2001 19.9501C9.2501 24.0001 15.8501 24.0001 19.9501 19.9501C24.0001 15.9001 24.0001 9.3001 19.9501 5.2001ZM19.4001 19.4001C15.6501 23.1501 9.5001 23.1501 5.7501 19.4001C2.0001 15.6501 2.0001 9.5001 5.7501 5.7501C9.5001 2.0001 15.6501 2.0001 19.4001 5.7501C23.1501 9.5001 23.1501 15.6501 19.4001 19.4001Z" fill="#B0BDC6"/>
<path opacity="0.6" d="M18.0498 14.9C14.7998 18.15 9.49982 18.15 6.24982 14.9C5.39982 14.05 4.74982 13.05 4.34982 11.95C4.14982 14.35 4.94982 16.8 6.74982 18.6C9.99982 21.85 15.2998 21.85 18.5498 18.6C20.9498 16.2 21.5498 12.7 20.4498 9.75C20.2498 11.65 19.4498 13.45 18.0498 14.9Z" fill="#A6AEB0"/>
<path d="M19.9399 23.3976L23.4049 19.9326L30.2999 26.8271L26.8349 30.2921L19.9399 23.3976Z" fill="#333333"/>
<path d="M20.7183 22.62L22.6268 20.71L29.5218 27.6035L27.6133 29.513L20.7183 22.62Z" fill="#575B5E"/>
<path d="M30.9502 26.4502C31.5002 27.0002 27.0502 31.5002 26.4502 30.9502L26.1002 30.6002C25.5502 30.0502 30.0002 25.5502 30.6002 26.1002L30.9502 26.4502Z" fill="#B0BDC6"/>
<path d="M30.2002 27.2002C30.7502 27.7502 27.8002 30.7502 27.2002 30.2002L26.8502 29.8502C26.3002 29.3002 29.2502 26.3002 29.8502 26.8502L30.2002 27.2002Z" fill="#DFE9EF"/>
</svg>
