<svg width="24" height="25" viewBox="0 0 24 25" fill="none" xmlns="http://www.w3.org/2000/svg">
<path d="M12 9.40039C11.6022 9.40039 11.2206 9.55843 10.9393 9.83973C10.658 10.121 10.5 10.5026 10.5 10.9004V11.0074C10.5 11.14 10.4473 11.2672 10.3536 11.3609C10.2598 11.4547 10.1326 11.5074 10 11.5074C9.86739 11.5074 9.74021 11.4547 9.64645 11.3609C9.55268 11.2672 9.5 11.14 9.5 11.0074V10.9004C9.5 10.2373 9.76339 9.60146 10.2322 9.13262C10.7011 8.66378 11.337 8.40039 12 8.40039H12.116C12.6029 8.40054 13.0781 8.54978 13.4777 8.82803C13.8772 9.10628 14.182 9.50021 14.351 9.95684C14.52 10.4135 14.5452 10.9109 14.4231 11.3823C14.301 11.8536 14.0375 12.2763 13.668 12.5934L12.897 13.2544C12.7727 13.3612 12.6728 13.4936 12.6043 13.6426C12.5358 13.7915 12.5002 13.9535 12.5 14.1174V14.6504C12.5 14.783 12.4473 14.9102 12.3536 15.0039C12.2598 15.0977 12.1326 15.1504 12 15.1504C11.8674 15.1504 11.7402 15.0977 11.6464 15.0039C11.5527 14.9102 11.5 14.783 11.5 14.6504V14.1174C11.5 13.4934 11.773 12.9014 12.246 12.4954L13.016 11.8354C13.2307 11.6514 13.384 11.4061 13.4551 11.1324C13.5262 10.8587 13.5117 10.5698 13.4137 10.3046C13.3157 10.0393 13.1387 9.8105 12.9067 9.64885C12.6747 9.4872 12.3988 9.40049 12.116 9.40039H12ZM12 17.4004C12.1989 17.4004 12.3897 17.3214 12.5303 17.1807C12.671 17.0401 12.75 16.8493 12.75 16.6504C12.75 16.4515 12.671 16.2607 12.5303 16.1201C12.3897 15.9794 12.1989 15.9004 12 15.9004C11.8011 15.9004 11.6103 15.9794 11.4697 16.1201C11.329 16.2607 11.25 16.4515 11.25 16.6504C11.25 16.8493 11.329 17.0401 11.4697 17.1807C11.6103 17.3214 11.8011 17.4004 12 17.4004Z" fill="#191A18"/>
<path d="M3.5 12.9004C3.5 10.6461 4.39553 8.48404 5.98959 6.88998C7.58365 5.29592 9.74566 4.40039 12 4.40039C14.2543 4.40039 16.4163 5.29592 18.0104 6.88998C19.6045 8.48404 20.5 10.6461 20.5 12.9004C20.5 15.1547 19.6045 17.3167 18.0104 18.9108C16.4163 20.5049 14.2543 21.4004 12 21.4004C9.74566 21.4004 7.58365 20.5049 5.98959 18.9108C4.39553 17.3167 3.5 15.1547 3.5 12.9004ZM12 5.40039C10.0109 5.40039 8.10322 6.19057 6.6967 7.59709C5.29018 9.00361 4.5 10.9113 4.5 12.9004C4.5 14.8895 5.29018 16.7972 6.6967 18.2037C8.10322 19.6102 10.0109 20.4004 12 20.4004C13.9891 20.4004 15.8968 19.6102 17.3033 18.2037C18.7098 16.7972 19.5 14.8895 19.5 12.9004C19.5 10.9113 18.7098 9.00361 17.3033 7.59709C15.8968 6.19057 13.9891 5.40039 12 5.40039Z" fill="#191A18"/>
</svg>
