<svg width="120" height="24" viewBox="0 0 120 24" fill="none" xmlns="http://www.w3.org/2000/svg">
<path d="M12 0L14.95 7.59H23L17.5 12.21L19.4 20L12 15.9L4.6 20L6.5 12.21L1 7.59H9.05L12 0Z" fill="#C59540"/>
<path d="M36 0L38.95 7.59H47L41.5 12.21L43.4 20L36 15.9L28.6 20L30.5 12.21L25 7.59H33.05L36 0Z" fill="#C59540"/>
<path d="M60 0L62.95 7.59H71L65.5 12.21L67.4 20L60 15.9L52.6 20L54.5 12.21L49 7.59H57.05L60 0Z" fill="#C59540"/>
<path d="M84 0L86.95 7.59H95L89.5 12.21L91.4 20L84 15.9L76.6 20L78.5 12.21L73 7.59H81.05L84 0Z" fill="#C59540"/>
<path d="M108 0L110.95 7.59H119L113.5 12.21L115.4 20L108 15.9L100.6 20L102.5 12.21L97 7.59H105.05L108 0Z" fill="#C59540"/>
</svg>
