<svg width="30" height="30" viewBox="0 0 30 30" fill="none" xmlns="http://www.w3.org/2000/svg">
<path fill-rule="evenodd" clip-rule="evenodd" d="M15.0003 0C23.2843 0 30 6.71581 30 15C30 23.2842 23.2843 30 15.0003 30C12.405 30 9.96321 29.34 7.83255 28.1791L1.21873 29.2884C1.05572 29.3156 0.888578 29.3038 0.730998 29.254C0.573417 29.2041 0.429878 29.1177 0.312134 29.0017C0.194389 28.8857 0.105786 28.7435 0.0535811 28.5867C0.00137581 28.4299 -0.0129479 28.263 0.0117828 28.0995L1.12804 20.7181C0.380251 18.9047 -0.00285336 16.9616 0.000620202 15C0.000620202 6.71581 6.7163 0 15.0003 0ZM9.3395 7.60465C8.31394 7.60465 7.46419 8.46977 7.62325 9.53861C7.92464 11.5423 8.81486 15.2344 11.4632 17.9023C14.2315 20.6916 18.1928 21.8847 20.3374 22.3549C21.4481 22.5991 22.3955 21.72 22.3955 20.6358V18.0907C22.3955 18.0061 22.37 17.9235 22.3221 17.8538C22.2743 17.7841 22.2065 17.7304 22.1276 17.7L19.3928 16.6493C19.319 16.6211 19.2387 16.6143 19.1612 16.6298L16.4026 17.1684C14.6236 16.2474 13.5464 15.2149 12.9004 13.6591L13.4194 10.8474C13.4333 10.7726 13.4266 10.6954 13.3999 10.6242L12.3743 7.87674C12.3446 7.79707 12.2912 7.72835 12.2214 7.67974C12.1516 7.63114 12.0687 7.60494 11.9836 7.60465H9.3395Z" fill="#F4F2E9"/>
</svg>
